<?xml version="1.0" encoding="UTF-8" standalone="no"?>
<?xml-stylesheet href="styles.css" type="text/css"?>
<!DOCTYPE svg PUBLIC "-//W3C//DTD SVG 1.1//EN"
 "http://www.w3.org/Graphics/SVG/1.1/DTD/svg11.dtd">
<!-- Generated by graphviz version 2.43.0 (0)
 -->
<!-- Title: MyFir Pages: 1 -->
<svg width="2025pt" height="325pt"
 viewBox="0.00 0.00 2025.00 325.00" xmlns="http://www.w3.org/2000/svg" xmlns:xlink="http://www.w3.org/1999/xlink">
<g id="graph0" class="graph" transform="scale(1 1) rotate(0) translate(4 321)">
<title>MyFir</title>
<polygon fill="white" stroke="transparent" points="-4,4 -4,-321 2021,-321 2021,4 -4,4"/>
<g id="clust1" class="cluster">
<title>cluster_MyFir</title>
<polygon fill="#fff8dc" stroke="black" points="8,-8 8,-309 2009,-309 2009,-8 8,-8"/>
<text text-anchor="middle" x="1008.5" y="-293.8" font-family="Times,serif" font-size="14.00">MyFir</text>
</g>
<!-- cluster_MyFir_clock -->
<g id="node1" class="node">
<title>cluster_MyFir_clock</title>
<polygon fill="#cccccc" stroke="black" points="70,-278 16,-278 16,-242 70,-242 70,-278"/>
<text text-anchor="middle" x="43" y="-256.3" font-family="Times,serif" font-size="14.00">clock</text>
</g>
<!-- cluster_MyFir_reset -->
<g id="node2" class="node">
<title>cluster_MyFir_reset</title>
<polygon fill="#cccccc" stroke="black" points="70,-224 16,-224 16,-188 70,-188 70,-224"/>
<text text-anchor="middle" x="43" y="-202.3" font-family="Times,serif" font-size="14.00">reset</text>
</g>
<!-- cluster_MyFir_io_in -->
<g id="node3" class="node">
<title>cluster_MyFir_io_in</title>
<polygon fill="#cccccc" stroke="black" points="70,-170 16,-170 16,-134 70,-134 70,-170"/>
<text text-anchor="middle" x="43" y="-148.3" font-family="Times,serif" font-size="14.00">io_in</text>
</g>
<!-- struct_cluster_MyFir_REG -->
<g id="node5" class="node">
<title>struct_cluster_MyFir_REG</title>
<polygon fill="#ffe4b5" stroke="transparent" points="123.5,-140.5 123.5,-165.5 212.5,-165.5 212.5,-140.5 123.5,-140.5"/>
<polygon fill="none" stroke="black" points="124,-140 124,-165 147,-165 147,-140 124,-140"/>
<text text-anchor="start" x="129" y="-148.8" font-family="Times,serif" font-size="14.00">●</text>
<polygon fill="none" stroke="black" points="147,-140 147,-165 190,-165 190,-140 147,-140"/>
<text text-anchor="start" x="152" y="-148.8" font-family="Times,serif" font-size="14.00">REG</text>
<polygon fill="none" stroke="black" points="190,-140 190,-165 213,-165 213,-140 190,-140"/>
<text text-anchor="start" x="195" y="-148.8" font-family="Times,serif" font-size="14.00">●</text>
</g>
<!-- cluster_MyFir_io_in&#45;&gt;struct_cluster_MyFir_REG -->
<g id="edge36" class="edge">
<title>cluster_MyFir_io_in&#45;&gt;struct_cluster_MyFir_REG:in</title>
<path fill="none" stroke="black" d="M70.33,-152C82.81,-152 98.19,-152 112.94,-152"/>
<polygon fill="black" stroke="black" points="113,-155.5 123,-152 113,-148.5 113,-155.5"/>
</g>
<!-- op_mul_19 -->
<g id="node12" class="node">
<title>op_mul_19</title>
<polygon fill="#d8bfd8" stroke="transparent" points="114,-208 114,-258 222,-258 222,-208 114,-208"/>
<polygon fill="none" stroke="black" points="114,-233 114,-258 152,-258 152,-233 114,-233"/>
<text text-anchor="start" x="126.5" y="-241.8" font-family="Times,serif" font-size="14.00">●</text>
<polygon fill="none" stroke="black" points="152,-208 152,-258 199,-258 199,-208 152,-208"/>
<text text-anchor="start" x="157" y="-229.3" font-family="Times,serif" font-size="14.00"> mul </text>
<polygon fill="none" stroke="black" points="199,-208 199,-258 222,-258 222,-208 199,-208"/>
<text text-anchor="start" x="204" y="-229.3" font-family="Times,serif" font-size="14.00">●</text>
<polygon fill="none" stroke="black" points="114,-208 114,-233 152,-233 152,-208 114,-208"/>
<text text-anchor="start" x="119" y="-216.8" font-family="Times,serif" font-size="14.00">328</text>
</g>
<!-- cluster_MyFir_io_in&#45;&gt;op_mul_19 -->
<g id="edge21" class="edge">
<title>cluster_MyFir_io_in&#45;&gt;op_mul_19:in1</title>
<path fill="none" stroke="black" d="M62.4,-170.15C65.05,-173.03 67.66,-176.04 70,-179 89.53,-203.73 80.31,-237.55 103.06,-244.66"/>
<polygon fill="black" stroke="black" points="102.62,-248.13 113,-246 103.56,-241.19 102.62,-248.13"/>
</g>
<!-- cluster_MyFir_io_out -->
<g id="node4" class="node">
<title>cluster_MyFir_io_out</title>
<polygon fill="#e0ffff" stroke="black" points="2001,-111 1942,-111 1942,-75 2001,-75 2001,-111"/>
<text text-anchor="middle" x="1971.5" y="-89.3" font-family="Times,serif" font-size="14.00">io_out</text>
</g>
<!-- struct_cluster_MyFir_REG_1 -->
<g id="node6" class="node">
<title>struct_cluster_MyFir_REG_1</title>
<polygon fill="#ffe4b5" stroke="transparent" points="280,-116.5 280,-141.5 385,-141.5 385,-116.5 280,-116.5"/>
<polygon fill="none" stroke="black" points="280.5,-116 280.5,-141 303.5,-141 303.5,-116 280.5,-116"/>
<text text-anchor="start" x="285.5" y="-124.8" font-family="Times,serif" font-size="14.00">●</text>
<polygon fill="none" stroke="black" points="303.5,-116 303.5,-141 362.5,-141 362.5,-116 303.5,-116"/>
<text text-anchor="start" x="308.5" y="-124.8" font-family="Times,serif" font-size="14.00">REG_1</text>
<polygon fill="none" stroke="black" points="362.5,-116 362.5,-141 385.5,-141 385.5,-116 362.5,-116"/>
<text text-anchor="start" x="367.5" y="-124.8" font-family="Times,serif" font-size="14.00">●</text>
</g>
<!-- struct_cluster_MyFir_REG&#45;&gt;struct_cluster_MyFir_REG_1 -->
<g id="edge9" class="edge">
<title>struct_cluster_MyFir_REG:out&#45;&gt;struct_cluster_MyFir_REG_1:in</title>
<path fill="none" stroke="black" d="M214,-152C241.25,-152 247.25,-133.46 269.35,-128.97"/>
<polygon fill="black" stroke="black" points="269.88,-132.44 279.5,-128 269.21,-125.47 269.88,-132.44"/>
</g>
<!-- op_mul_20 -->
<g id="node14" class="node">
<title>op_mul_20</title>
<polygon fill="#d8bfd8" stroke="transparent" points="274,-169 274,-219 391,-219 391,-169 274,-169"/>
<polygon fill="none" stroke="black" points="274.5,-194 274.5,-219 321.5,-219 321.5,-194 274.5,-194"/>
<text text-anchor="start" x="291.5" y="-202.8" font-family="Times,serif" font-size="14.00">●</text>
<polygon fill="none" stroke="black" points="321.5,-169 321.5,-219 368.5,-219 368.5,-169 321.5,-169"/>
<text text-anchor="start" x="326.5" y="-190.3" font-family="Times,serif" font-size="14.00"> mul </text>
<polygon fill="none" stroke="black" points="368.5,-169 368.5,-219 391.5,-219 391.5,-169 368.5,-169"/>
<text text-anchor="start" x="373.5" y="-190.3" font-family="Times,serif" font-size="14.00">●</text>
<polygon fill="none" stroke="black" points="274.5,-169 274.5,-194 321.5,-194 321.5,-169 274.5,-169"/>
<text text-anchor="start" x="279.5" y="-177.8" font-family="Times,serif" font-size="14.00">1270</text>
</g>
<!-- struct_cluster_MyFir_REG&#45;&gt;op_mul_20 -->
<g id="edge13" class="edge">
<title>struct_cluster_MyFir_REG:out&#45;&gt;op_mul_20:in1</title>
<path fill="none" stroke="black" d="M214,-152C246.21,-152 239.59,-196.01 263.61,-205.29"/>
<polygon fill="black" stroke="black" points="263.05,-208.75 273.5,-207 264.24,-201.85 263.05,-208.75"/>
</g>
<!-- struct_cluster_MyFir_REG_2 -->
<g id="node7" class="node">
<title>struct_cluster_MyFir_REG_2</title>
<polygon fill="#ffe4b5" stroke="transparent" points="449,-63.5 449,-88.5 554,-88.5 554,-63.5 449,-63.5"/>
<polygon fill="none" stroke="black" points="449.5,-63 449.5,-88 472.5,-88 472.5,-63 449.5,-63"/>
<text text-anchor="start" x="454.5" y="-71.8" font-family="Times,serif" font-size="14.00">●</text>
<polygon fill="none" stroke="black" points="472.5,-63 472.5,-88 531.5,-88 531.5,-63 472.5,-63"/>
<text text-anchor="start" x="477.5" y="-71.8" font-family="Times,serif" font-size="14.00">REG_2</text>
<polygon fill="none" stroke="black" points="531.5,-63 531.5,-88 554.5,-88 554.5,-63 531.5,-63"/>
<text text-anchor="start" x="536.5" y="-71.8" font-family="Times,serif" font-size="14.00">●</text>
</g>
<!-- struct_cluster_MyFir_REG_1&#45;&gt;struct_cluster_MyFir_REG_2 -->
<g id="edge29" class="edge">
<title>struct_cluster_MyFir_REG_1:out&#45;&gt;struct_cluster_MyFir_REG_2:in</title>
<path fill="none" stroke="black" d="M386.5,-128C418.93,-128 413.94,-85.59 438.48,-76.64"/>
<polygon fill="black" stroke="black" points="439.2,-80.07 448.5,-75 438.07,-73.17 439.2,-80.07"/>
</g>
<!-- op_mul_21 -->
<g id="node16" class="node">
<title>op_mul_21</title>
<polygon fill="#d8bfd8" stroke="transparent" points="443,-116 443,-166 560,-166 560,-116 443,-116"/>
<polygon fill="none" stroke="black" points="443.5,-141 443.5,-166 490.5,-166 490.5,-141 443.5,-141"/>
<text text-anchor="start" x="460.5" y="-149.8" font-family="Times,serif" font-size="14.00">●</text>
<polygon fill="none" stroke="black" points="490.5,-116 490.5,-166 537.5,-166 537.5,-116 490.5,-116"/>
<text text-anchor="start" x="495.5" y="-137.3" font-family="Times,serif" font-size="14.00"> mul </text>
<polygon fill="none" stroke="black" points="537.5,-116 537.5,-166 560.5,-166 560.5,-116 537.5,-116"/>
<text text-anchor="start" x="542.5" y="-137.3" font-family="Times,serif" font-size="14.00">●</text>
<polygon fill="none" stroke="black" points="443.5,-116 443.5,-141 490.5,-141 490.5,-116 443.5,-116"/>
<text text-anchor="start" x="448.5" y="-124.8" font-family="Times,serif" font-size="14.00">3154</text>
</g>
<!-- struct_cluster_MyFir_REG_1&#45;&gt;op_mul_21 -->
<g id="edge25" class="edge">
<title>struct_cluster_MyFir_REG_1:out&#45;&gt;op_mul_21:in1</title>
<path fill="none" stroke="black" d="M386.5,-128C410.08,-128 414.22,-147.2 432.34,-152.6"/>
<polygon fill="black" stroke="black" points="432.12,-156.1 442.5,-154 433.07,-149.17 432.12,-156.1"/>
</g>
<!-- struct_cluster_MyFir_REG_3 -->
<g id="node8" class="node">
<title>struct_cluster_MyFir_REG_3</title>
<polygon fill="#ffe4b5" stroke="transparent" points="618,-41.5 618,-66.5 723,-66.5 723,-41.5 618,-41.5"/>
<polygon fill="none" stroke="black" points="618.5,-41 618.5,-66 641.5,-66 641.5,-41 618.5,-41"/>
<text text-anchor="start" x="623.5" y="-49.8" font-family="Times,serif" font-size="14.00">●</text>
<polygon fill="none" stroke="black" points="641.5,-41 641.5,-66 700.5,-66 700.5,-41 641.5,-41"/>
<text text-anchor="start" x="646.5" y="-49.8" font-family="Times,serif" font-size="14.00">REG_3</text>
<polygon fill="none" stroke="black" points="700.5,-41 700.5,-66 723.5,-66 723.5,-41 700.5,-41"/>
<text text-anchor="start" x="705.5" y="-49.8" font-family="Times,serif" font-size="14.00">●</text>
</g>
<!-- struct_cluster_MyFir_REG_2&#45;&gt;struct_cluster_MyFir_REG_3 -->
<g id="edge10" class="edge">
<title>struct_cluster_MyFir_REG_2:out&#45;&gt;struct_cluster_MyFir_REG_3:in</title>
<path fill="none" stroke="black" d="M555.5,-75C580.97,-75 586.93,-58.31 607.36,-54"/>
<polygon fill="black" stroke="black" points="607.89,-57.47 617.5,-53 607.2,-50.5 607.89,-57.47"/>
</g>
<!-- op_mul_22 -->
<g id="node18" class="node">
<title>op_mul_22</title>
<polygon fill="#d8bfd8" stroke="transparent" points="612,-94 612,-144 729,-144 729,-94 612,-94"/>
<polygon fill="none" stroke="black" points="612.5,-119 612.5,-144 659.5,-144 659.5,-119 612.5,-119"/>
<text text-anchor="start" x="629.5" y="-127.8" font-family="Times,serif" font-size="14.00">●</text>
<polygon fill="none" stroke="black" points="659.5,-94 659.5,-144 706.5,-144 706.5,-94 659.5,-94"/>
<text text-anchor="start" x="664.5" y="-115.3" font-family="Times,serif" font-size="14.00"> mul </text>
<polygon fill="none" stroke="black" points="706.5,-94 706.5,-144 729.5,-144 729.5,-94 706.5,-94"/>
<text text-anchor="start" x="711.5" y="-115.3" font-family="Times,serif" font-size="14.00">●</text>
<polygon fill="none" stroke="black" points="612.5,-94 612.5,-119 659.5,-119 659.5,-94 612.5,-94"/>
<text text-anchor="start" x="617.5" y="-102.8" font-family="Times,serif" font-size="14.00">4096</text>
</g>
<!-- struct_cluster_MyFir_REG_2&#45;&gt;op_mul_22 -->
<g id="edge37" class="edge">
<title>struct_cluster_MyFir_REG_2:out&#45;&gt;op_mul_22:in1</title>
<path fill="none" stroke="black" d="M555.5,-75C587.13,-75 578.67,-120.21 601.53,-130.1"/>
<polygon fill="black" stroke="black" points="601.02,-133.57 611.5,-132 602.33,-126.69 601.02,-133.57"/>
</g>
<!-- struct_cluster_MyFir_REG_4 -->
<g id="node9" class="node">
<title>struct_cluster_MyFir_REG_4</title>
<polygon fill="#ffe4b5" stroke="transparent" points="787,-41.5 787,-66.5 892,-66.5 892,-41.5 787,-41.5"/>
<polygon fill="none" stroke="black" points="787.5,-41 787.5,-66 810.5,-66 810.5,-41 787.5,-41"/>
<text text-anchor="start" x="792.5" y="-49.8" font-family="Times,serif" font-size="14.00">●</text>
<polygon fill="none" stroke="black" points="810.5,-41 810.5,-66 869.5,-66 869.5,-41 810.5,-41"/>
<text text-anchor="start" x="815.5" y="-49.8" font-family="Times,serif" font-size="14.00">REG_4</text>
<polygon fill="none" stroke="black" points="869.5,-41 869.5,-66 892.5,-66 892.5,-41 869.5,-41"/>
<text text-anchor="start" x="874.5" y="-49.8" font-family="Times,serif" font-size="14.00">●</text>
</g>
<!-- struct_cluster_MyFir_REG_3&#45;&gt;struct_cluster_MyFir_REG_4 -->
<g id="edge27" class="edge">
<title>struct_cluster_MyFir_REG_3:out&#45;&gt;struct_cluster_MyFir_REG_4:in</title>
<path fill="none" stroke="black" d="M724.5,-53C748.29,-53 756.67,-53 776.25,-53"/>
<polygon fill="black" stroke="black" points="776.5,-56.5 786.5,-53 776.5,-49.5 776.5,-56.5"/>
</g>
<!-- op_mul_23 -->
<g id="node20" class="node">
<title>op_mul_23</title>
<polygon fill="#d8bfd8" stroke="transparent" points="781,-95 781,-145 898,-145 898,-95 781,-95"/>
<polygon fill="none" stroke="black" points="781.5,-120 781.5,-145 828.5,-145 828.5,-120 781.5,-120"/>
<text text-anchor="start" x="798.5" y="-128.8" font-family="Times,serif" font-size="14.00">●</text>
<polygon fill="none" stroke="black" points="828.5,-95 828.5,-145 875.5,-145 875.5,-95 828.5,-95"/>
<text text-anchor="start" x="833.5" y="-116.3" font-family="Times,serif" font-size="14.00"> mul </text>
<polygon fill="none" stroke="black" points="875.5,-95 875.5,-145 898.5,-145 898.5,-95 875.5,-95"/>
<text text-anchor="start" x="880.5" y="-116.3" font-family="Times,serif" font-size="14.00">●</text>
<polygon fill="none" stroke="black" points="781.5,-95 781.5,-120 828.5,-120 828.5,-95 781.5,-95"/>
<text text-anchor="start" x="786.5" y="-103.8" font-family="Times,serif" font-size="14.00">3154</text>
</g>
<!-- struct_cluster_MyFir_REG_3&#45;&gt;op_mul_23 -->
<g id="edge3" class="edge">
<title>struct_cluster_MyFir_REG_3:out&#45;&gt;op_mul_23:in1</title>
<path fill="none" stroke="black" d="M724.5,-53C764,-53 742.03,-119.27 770.49,-131.18"/>
<polygon fill="black" stroke="black" points="770.03,-134.65 780.5,-133 771.29,-127.77 770.03,-134.65"/>
</g>
<!-- struct_cluster_MyFir_REG_5 -->
<g id="node10" class="node">
<title>struct_cluster_MyFir_REG_5</title>
<polygon fill="#ffe4b5" stroke="transparent" points="956,-21.5 956,-46.5 1061,-46.5 1061,-21.5 956,-21.5"/>
<polygon fill="none" stroke="black" points="956.5,-21 956.5,-46 979.5,-46 979.5,-21 956.5,-21"/>
<text text-anchor="start" x="961.5" y="-29.8" font-family="Times,serif" font-size="14.00">●</text>
<polygon fill="none" stroke="black" points="979.5,-21 979.5,-46 1038.5,-46 1038.5,-21 979.5,-21"/>
<text text-anchor="start" x="984.5" y="-29.8" font-family="Times,serif" font-size="14.00">REG_5</text>
<polygon fill="none" stroke="black" points="1038.5,-21 1038.5,-46 1061.5,-46 1061.5,-21 1038.5,-21"/>
<text text-anchor="start" x="1043.5" y="-29.8" font-family="Times,serif" font-size="14.00">●</text>
</g>
<!-- struct_cluster_MyFir_REG_4&#45;&gt;struct_cluster_MyFir_REG_5 -->
<g id="edge8" class="edge">
<title>struct_cluster_MyFir_REG_4:out&#45;&gt;struct_cluster_MyFir_REG_5:in</title>
<path fill="none" stroke="black" d="M893.5,-53C918.72,-53 925.08,-37.82 945.44,-33.91"/>
<polygon fill="black" stroke="black" points="945.86,-37.39 955.5,-33 945.23,-30.42 945.86,-37.39"/>
</g>
<!-- op_mul_24 -->
<g id="node22" class="node">
<title>op_mul_24</title>
<polygon fill="#d8bfd8" stroke="transparent" points="950,-74 950,-124 1067,-124 1067,-74 950,-74"/>
<polygon fill="none" stroke="black" points="950.5,-99 950.5,-124 997.5,-124 997.5,-99 950.5,-99"/>
<text text-anchor="start" x="967.5" y="-107.8" font-family="Times,serif" font-size="14.00">●</text>
<polygon fill="none" stroke="black" points="997.5,-74 997.5,-124 1044.5,-124 1044.5,-74 997.5,-74"/>
<text text-anchor="start" x="1002.5" y="-95.3" font-family="Times,serif" font-size="14.00"> mul </text>
<polygon fill="none" stroke="black" points="1044.5,-74 1044.5,-124 1067.5,-124 1067.5,-74 1044.5,-74"/>
<text text-anchor="start" x="1049.5" y="-95.3" font-family="Times,serif" font-size="14.00">●</text>
<polygon fill="none" stroke="black" points="950.5,-74 950.5,-99 997.5,-99 997.5,-74 950.5,-74"/>
<text text-anchor="start" x="955.5" y="-82.8" font-family="Times,serif" font-size="14.00">1270</text>
</g>
<!-- struct_cluster_MyFir_REG_4&#45;&gt;op_mul_24 -->
<g id="edge14" class="edge">
<title>struct_cluster_MyFir_REG_4:out&#45;&gt;op_mul_24:in1</title>
<path fill="none" stroke="black" d="M893.5,-53C925.7,-53 916.29,-99.8 939.38,-110.04"/>
<polygon fill="black" stroke="black" points="939.02,-113.53 949.5,-112 940.35,-106.66 939.02,-113.53"/>
</g>
<!-- op_mul_25 -->
<g id="node24" class="node">
<title>op_mul_25</title>
<polygon fill="#d8bfd8" stroke="transparent" points="1119,-20 1119,-70 1227,-70 1227,-20 1119,-20"/>
<polygon fill="none" stroke="black" points="1119,-45 1119,-70 1157,-70 1157,-45 1119,-45"/>
<text text-anchor="start" x="1131.5" y="-53.8" font-family="Times,serif" font-size="14.00">●</text>
<polygon fill="none" stroke="black" points="1157,-20 1157,-70 1204,-70 1204,-20 1157,-20"/>
<text text-anchor="start" x="1162" y="-41.3" font-family="Times,serif" font-size="14.00"> mul </text>
<polygon fill="none" stroke="black" points="1204,-20 1204,-70 1227,-70 1227,-20 1204,-20"/>
<text text-anchor="start" x="1209" y="-41.3" font-family="Times,serif" font-size="14.00">●</text>
<polygon fill="none" stroke="black" points="1119,-20 1119,-45 1157,-45 1157,-20 1119,-20"/>
<text text-anchor="start" x="1124" y="-28.8" font-family="Times,serif" font-size="14.00">328</text>
</g>
<!-- struct_cluster_MyFir_REG_5&#45;&gt;op_mul_25 -->
<g id="edge31" class="edge">
<title>struct_cluster_MyFir_REG_5:out&#45;&gt;op_mul_25:in1</title>
<path fill="none" stroke="black" d="M1062.5,-33C1085.75,-33 1090.05,-51.46 1107.97,-56.66"/>
<polygon fill="black" stroke="black" points="1107.62,-60.14 1118,-58 1108.55,-53.2 1107.62,-60.14"/>
</g>
<!-- cluster_MyFir_mults_0 -->
<g id="node11" class="node">
<title>cluster_MyFir_mults_0</title>
<polygon fill="none" stroke="black" points="369,-277 296,-277 296,-241 369,-241 369,-277"/>
<text text-anchor="middle" x="332.5" y="-255.3" font-family="Times,serif" font-size="14.00">mults_0</text>
</g>
<!-- op_pad_27 -->
<g id="node27" class="node">
<title>op_pad_27</title>
<polygon fill="#d8bfd8" stroke="transparent" points="455.5,-247.5 455.5,-272.5 547.5,-272.5 547.5,-247.5 455.5,-247.5"/>
<polygon fill="none" stroke="black" points="455.5,-247 455.5,-272 478.5,-272 478.5,-247 455.5,-247"/>
<text text-anchor="start" x="460.5" y="-255.8" font-family="Times,serif" font-size="14.00">●</text>
<polygon fill="none" stroke="black" points="478.5,-247 478.5,-272 524.5,-272 524.5,-247 478.5,-247"/>
<text text-anchor="start" x="483.5" y="-255.8" font-family="Times,serif" font-size="14.00"> pad </text>
<polygon fill="none" stroke="black" points="524.5,-247 524.5,-272 547.5,-272 547.5,-247 524.5,-247"/>
<text text-anchor="start" x="529.5" y="-255.8" font-family="Times,serif" font-size="14.00">●</text>
</g>
<!-- cluster_MyFir_mults_0&#45;&gt;op_pad_27 -->
<g id="edge35" class="edge">
<title>cluster_MyFir_mults_0&#45;&gt;op_pad_27:in1</title>
<path fill="none" stroke="black" d="M369.24,-259C390.51,-259 418.32,-259 444.28,-259"/>
<polygon fill="black" stroke="black" points="444.5,-262.5 454.5,-259 444.5,-255.5 444.5,-262.5"/>
</g>
<!-- op_mul_19&#45;&gt;cluster_MyFir_mults_0 -->
<g id="edge2" class="edge">
<title>op_mul_19:out&#45;&gt;cluster_MyFir_mults_0</title>
<path fill="none" stroke="black" d="M223,-233C244.11,-233 266.92,-237.71 286.14,-243.13"/>
<polygon fill="black" stroke="black" points="285.26,-246.52 295.85,-246 287.25,-239.8 285.26,-246.52"/>
</g>
<!-- cluster_MyFir_mults_1 -->
<g id="node13" class="node">
<title>cluster_MyFir_mults_1</title>
<polygon fill="none" stroke="black" points="538,-224 465,-224 465,-188 538,-188 538,-224"/>
<text text-anchor="middle" x="501.5" y="-202.3" font-family="Times,serif" font-size="14.00">mults_1</text>
</g>
<!-- op_add_26 -->
<g id="node26" class="node">
<title>op_add_26</title>
<polygon fill="#d8bfd8" stroke="transparent" points="624.5,-224 624.5,-274 716.5,-274 716.5,-224 624.5,-224"/>
<polygon fill="none" stroke="black" points="624.5,-249 624.5,-274 647.5,-274 647.5,-249 624.5,-249"/>
<text text-anchor="start" x="629.5" y="-257.8" font-family="Times,serif" font-size="14.00">●</text>
<polygon fill="none" stroke="black" points="647.5,-224 647.5,-274 693.5,-274 693.5,-224 647.5,-224"/>
<text text-anchor="start" x="652.5" y="-245.3" font-family="Times,serif" font-size="14.00"> add </text>
<polygon fill="none" stroke="black" points="693.5,-224 693.5,-274 716.5,-274 716.5,-224 693.5,-224"/>
<text text-anchor="start" x="698.5" y="-245.3" font-family="Times,serif" font-size="14.00">●</text>
<polygon fill="none" stroke="black" points="624.5,-224 624.5,-249 647.5,-249 647.5,-224 624.5,-224"/>
<text text-anchor="start" x="629.5" y="-232.8" font-family="Times,serif" font-size="14.00">●</text>
</g>
<!-- cluster_MyFir_mults_1&#45;&gt;op_add_26 -->
<g id="edge18" class="edge">
<title>cluster_MyFir_mults_1&#45;&gt;op_add_26:in2</title>
<path fill="none" stroke="black" d="M538.2,-219.68C559.3,-226.7 586.99,-234.1 613.44,-235.69"/>
<polygon fill="black" stroke="black" points="613.4,-239.19 623.5,-236 613.61,-232.19 613.4,-239.19"/>
</g>
<!-- op_mul_20&#45;&gt;cluster_MyFir_mults_1 -->
<g id="edge34" class="edge">
<title>op_mul_20:out&#45;&gt;cluster_MyFir_mults_1</title>
<path fill="none" stroke="black" d="M392.5,-194C412.97,-194 435.49,-196.16 454.64,-198.64"/>
<polygon fill="black" stroke="black" points="454.23,-202.12 464.61,-200 455.18,-195.18 454.23,-202.12"/>
</g>
<!-- cluster_MyFir_mults_2 -->
<g id="node15" class="node">
<title>cluster_MyFir_mults_2</title>
<polygon fill="none" stroke="black" points="707,-202 634,-202 634,-166 707,-166 707,-202"/>
<text text-anchor="middle" x="670.5" y="-180.3" font-family="Times,serif" font-size="14.00">mults_2</text>
</g>
<!-- op_add_32 -->
<g id="node33" class="node">
<title>op_add_32</title>
<polygon fill="#d8bfd8" stroke="transparent" points="962.5,-224 962.5,-274 1054.5,-274 1054.5,-224 962.5,-224"/>
<polygon fill="none" stroke="black" points="962.5,-249 962.5,-274 985.5,-274 985.5,-249 962.5,-249"/>
<text text-anchor="start" x="967.5" y="-257.8" font-family="Times,serif" font-size="14.00">●</text>
<polygon fill="none" stroke="black" points="985.5,-224 985.5,-274 1031.5,-274 1031.5,-224 985.5,-224"/>
<text text-anchor="start" x="990.5" y="-245.3" font-family="Times,serif" font-size="14.00"> add </text>
<polygon fill="none" stroke="black" points="1031.5,-224 1031.5,-274 1054.5,-274 1054.5,-224 1031.5,-224"/>
<text text-anchor="start" x="1036.5" y="-245.3" font-family="Times,serif" font-size="14.00">●</text>
<polygon fill="none" stroke="black" points="962.5,-224 962.5,-249 985.5,-249 985.5,-224 962.5,-224"/>
<text text-anchor="start" x="967.5" y="-232.8" font-family="Times,serif" font-size="14.00">●</text>
</g>
<!-- cluster_MyFir_mults_2&#45;&gt;op_add_32 -->
<g id="edge22" class="edge">
<title>cluster_MyFir_mults_2&#45;&gt;op_add_32:in2</title>
<path fill="none" stroke="black" d="M707.37,-195.24C726.66,-200.94 750.95,-207.58 773,-212 811.41,-219.7 904.45,-233.77 951.41,-235.76"/>
<polygon fill="black" stroke="black" points="951.42,-239.26 961.5,-236 951.59,-232.27 951.42,-239.26"/>
</g>
<!-- op_mul_21&#45;&gt;cluster_MyFir_mults_2 -->
<g id="edge17" class="edge">
<title>op_mul_21:out&#45;&gt;cluster_MyFir_mults_2</title>
<path fill="none" stroke="black" d="M561.5,-141C563.27,-141 595.47,-153.89 624.26,-165.55"/>
<polygon fill="black" stroke="black" points="623.25,-168.92 633.84,-169.44 625.89,-162.44 623.25,-168.92"/>
</g>
<!-- cluster_MyFir_mults_3 -->
<g id="node17" class="node">
<title>cluster_MyFir_mults_3</title>
<polygon fill="none" stroke="black" points="876,-203 803,-203 803,-167 876,-167 876,-203"/>
<text text-anchor="middle" x="839.5" y="-181.3" font-family="Times,serif" font-size="14.00">mults_3</text>
</g>
<!-- op_add_31 -->
<g id="node32" class="node">
<title>op_add_31</title>
<polygon fill="#d8bfd8" stroke="transparent" points="1127,-204 1127,-254 1219,-254 1219,-204 1127,-204"/>
<polygon fill="none" stroke="black" points="1127,-229 1127,-254 1150,-254 1150,-229 1127,-229"/>
<text text-anchor="start" x="1132" y="-237.8" font-family="Times,serif" font-size="14.00">●</text>
<polygon fill="none" stroke="black" points="1150,-204 1150,-254 1196,-254 1196,-204 1150,-204"/>
<text text-anchor="start" x="1155" y="-225.3" font-family="Times,serif" font-size="14.00"> add </text>
<polygon fill="none" stroke="black" points="1196,-204 1196,-254 1219,-254 1219,-204 1196,-204"/>
<text text-anchor="start" x="1201" y="-225.3" font-family="Times,serif" font-size="14.00">●</text>
<polygon fill="none" stroke="black" points="1127,-204 1127,-229 1150,-229 1150,-204 1127,-204"/>
<text text-anchor="start" x="1132" y="-212.8" font-family="Times,serif" font-size="14.00">●</text>
</g>
<!-- cluster_MyFir_mults_3&#45;&gt;op_add_31 -->
<g id="edge16" class="edge">
<title>cluster_MyFir_mults_3&#45;&gt;op_add_31:in2</title>
<path fill="none" stroke="black" d="M876.02,-188.96C941.32,-196.22 1077.27,-211.29 1115.8,-215.11"/>
<polygon fill="black" stroke="black" points="1115.73,-218.61 1126,-216 1116.34,-211.64 1115.73,-218.61"/>
</g>
<!-- op_mul_22&#45;&gt;cluster_MyFir_mults_3 -->
<g id="edge5" class="edge">
<title>op_mul_22:out&#45;&gt;cluster_MyFir_mults_3</title>
<path fill="none" stroke="black" d="M730.5,-119C756.14,-119 751.37,-144.24 773,-158 779.28,-162 786.25,-165.61 793.23,-168.8"/>
<polygon fill="black" stroke="black" points="792.13,-172.14 802.7,-172.89 794.9,-165.71 792.13,-172.14"/>
</g>
<!-- cluster_MyFir_mults_4 -->
<g id="node19" class="node">
<title>cluster_MyFir_mults_4</title>
<polygon fill="none" stroke="black" points="1045,-182 972,-182 972,-146 1045,-146 1045,-182"/>
<text text-anchor="middle" x="1008.5" y="-160.3" font-family="Times,serif" font-size="14.00">mults_4</text>
</g>
<!-- op_pad_33 -->
<g id="node34" class="node">
<title>op_pad_33</title>
<polygon fill="#d8bfd8" stroke="transparent" points="1127,-151.5 1127,-176.5 1219,-176.5 1219,-151.5 1127,-151.5"/>
<polygon fill="none" stroke="black" points="1127,-151 1127,-176 1150,-176 1150,-151 1127,-151"/>
<text text-anchor="start" x="1132" y="-159.8" font-family="Times,serif" font-size="14.00">●</text>
<polygon fill="none" stroke="black" points="1150,-151 1150,-176 1196,-176 1196,-151 1150,-151"/>
<text text-anchor="start" x="1155" y="-159.8" font-family="Times,serif" font-size="14.00"> pad </text>
<polygon fill="none" stroke="black" points="1196,-151 1196,-176 1219,-176 1219,-151 1196,-151"/>
<text text-anchor="start" x="1201" y="-159.8" font-family="Times,serif" font-size="14.00">●</text>
</g>
<!-- cluster_MyFir_mults_4&#45;&gt;op_pad_33 -->
<g id="edge38" class="edge">
<title>cluster_MyFir_mults_4&#45;&gt;op_pad_33:in1</title>
<path fill="none" stroke="black" d="M1045.19,-163.54C1065.37,-163.31 1091.35,-163.07 1115.69,-163.01"/>
<polygon fill="black" stroke="black" points="1116,-166.51 1126,-163 1116,-159.51 1116,-166.51"/>
</g>
<!-- op_mul_23&#45;&gt;cluster_MyFir_mults_4 -->
<g id="edge32" class="edge">
<title>op_mul_23:out&#45;&gt;cluster_MyFir_mults_4</title>
<path fill="none" stroke="black" d="M899.5,-120C900.4,-120 933.37,-133.47 962.65,-145.51"/>
<polygon fill="black" stroke="black" points="961.4,-148.78 971.98,-149.35 964.07,-142.31 961.4,-148.78"/>
</g>
<!-- cluster_MyFir_mults_5 -->
<g id="node21" class="node">
<title>cluster_MyFir_mults_5</title>
<polygon fill="none" stroke="black" points="1209.5,-128 1136.5,-128 1136.5,-92 1209.5,-92 1209.5,-128"/>
<text text-anchor="middle" x="1173" y="-106.3" font-family="Times,serif" font-size="14.00">mults_5</text>
</g>
<!-- op_pad_34 -->
<g id="node35" class="node">
<title>op_pad_34</title>
<polygon fill="#d8bfd8" stroke="transparent" points="1279,-98.5 1279,-123.5 1371,-123.5 1371,-98.5 1279,-98.5"/>
<polygon fill="none" stroke="black" points="1279,-98 1279,-123 1302,-123 1302,-98 1279,-98"/>
<text text-anchor="start" x="1284" y="-106.8" font-family="Times,serif" font-size="14.00">●</text>
<polygon fill="none" stroke="black" points="1302,-98 1302,-123 1348,-123 1348,-98 1302,-98"/>
<text text-anchor="start" x="1307" y="-106.8" font-family="Times,serif" font-size="14.00"> pad </text>
<polygon fill="none" stroke="black" points="1348,-98 1348,-123 1371,-123 1371,-98 1348,-98"/>
<text text-anchor="start" x="1353" y="-106.8" font-family="Times,serif" font-size="14.00">●</text>
</g>
<!-- cluster_MyFir_mults_5&#45;&gt;op_pad_34 -->
<g id="edge12" class="edge">
<title>cluster_MyFir_mults_5&#45;&gt;op_pad_34:in1</title>
<path fill="none" stroke="black" d="M1209.62,-110C1226.8,-110 1247.98,-110 1267.99,-110"/>
<polygon fill="black" stroke="black" points="1268,-113.5 1278,-110 1268,-106.5 1268,-113.5"/>
</g>
<!-- op_mul_24&#45;&gt;cluster_MyFir_mults_5 -->
<g id="edge19" class="edge">
<title>op_mul_24:out&#45;&gt;cluster_MyFir_mults_5</title>
<path fill="none" stroke="black" d="M1068.5,-99C1087.47,-99 1108.29,-100.85 1126.25,-103.03"/>
<polygon fill="black" stroke="black" points="1125.81,-106.51 1136.17,-104.31 1126.7,-99.56 1125.81,-106.51"/>
</g>
<!-- cluster_MyFir_mults_6 -->
<g id="node23" class="node">
<title>cluster_MyFir_mults_6</title>
<polygon fill="none" stroke="black" points="1361.5,-66 1288.5,-66 1288.5,-30 1361.5,-30 1361.5,-66"/>
<text text-anchor="middle" x="1325" y="-44.3" font-family="Times,serif" font-size="14.00">mults_6</text>
</g>
<!-- op_pad_35 -->
<g id="node36" class="node">
<title>op_pad_35</title>
<polygon fill="#d8bfd8" stroke="transparent" points="1423,-42.5 1423,-67.5 1515,-67.5 1515,-42.5 1423,-42.5"/>
<polygon fill="none" stroke="black" points="1423,-42 1423,-67 1446,-67 1446,-42 1423,-42"/>
<text text-anchor="start" x="1428" y="-50.8" font-family="Times,serif" font-size="14.00">●</text>
<polygon fill="none" stroke="black" points="1446,-42 1446,-67 1492,-67 1492,-42 1446,-42"/>
<text text-anchor="start" x="1451" y="-50.8" font-family="Times,serif" font-size="14.00"> pad </text>
<polygon fill="none" stroke="black" points="1492,-42 1492,-67 1515,-67 1515,-42 1492,-42"/>
<text text-anchor="start" x="1497" y="-50.8" font-family="Times,serif" font-size="14.00">●</text>
</g>
<!-- cluster_MyFir_mults_6&#45;&gt;op_pad_35 -->
<g id="edge23" class="edge">
<title>cluster_MyFir_mults_6&#45;&gt;op_pad_35:in1</title>
<path fill="none" stroke="black" d="M1361.53,-51.28C1376.65,-52.45 1394.74,-53.57 1411.98,-53.9"/>
<polygon fill="black" stroke="black" points="1411.97,-57.4 1422,-54 1412.04,-50.4 1411.97,-57.4"/>
</g>
<!-- op_mul_25&#45;&gt;cluster_MyFir_mults_6 -->
<g id="edge6" class="edge">
<title>op_mul_25:out&#45;&gt;cluster_MyFir_mults_6</title>
<path fill="none" stroke="black" d="M1228,-45C1244.41,-45 1262.4,-45.44 1278.32,-45.99"/>
<polygon fill="black" stroke="black" points="1278.33,-49.49 1288.45,-46.36 1278.58,-42.5 1278.33,-49.49"/>
</g>
<!-- cluster_MyFir__T -->
<g id="node25" class="node">
<title>cluster_MyFir__T</title>
<polygon fill="none" stroke="black" points="866.5,-277 812.5,-277 812.5,-241 866.5,-241 866.5,-277"/>
<text text-anchor="middle" x="839.5" y="-255.3" font-family="Times,serif" font-size="14.00">_T</text>
</g>
<!-- cluster_MyFir__T&#45;&gt;op_add_32 -->
<g id="edge39" class="edge">
<title>cluster_MyFir__T&#45;&gt;op_add_32:in1</title>
<path fill="none" stroke="black" d="M866.93,-260.03C888.95,-260.81 921.45,-261.78 951.44,-261.97"/>
<polygon fill="black" stroke="black" points="951.49,-265.47 961.5,-262 951.51,-258.47 951.49,-265.47"/>
</g>
<!-- op_add_26&#45;&gt;cluster_MyFir__T -->
<g id="edge1" class="edge">
<title>op_add_26:out&#45;&gt;cluster_MyFir__T</title>
<path fill="none" stroke="black" d="M717.5,-249C745.96,-249 778.06,-251.78 802.04,-254.41"/>
<polygon fill="black" stroke="black" points="801.78,-257.9 812.12,-255.56 802.58,-250.95 801.78,-257.9"/>
</g>
<!-- op_pad_27&#45;&gt;op_add_26 -->
<g id="edge33" class="edge">
<title>op_pad_27:out&#45;&gt;op_add_26:in1</title>
<path fill="none" stroke="black" d="M548.5,-259C578.21,-259 588.03,-261.38 613.39,-261.9"/>
<polygon fill="black" stroke="black" points="613.47,-265.4 623.5,-262 613.54,-258.4 613.47,-265.4"/>
</g>
<!-- cluster_MyFir_result -->
<g id="node28" class="node">
<title>cluster_MyFir_result</title>
<polygon fill="none" stroke="black" points="1762,-111 1703,-111 1703,-75 1762,-75 1762,-111"/>
<text text-anchor="middle" x="1732.5" y="-89.3" font-family="Times,serif" font-size="14.00">result</text>
</g>
<!-- op_pad_36 -->
<g id="node37" class="node">
<title>op_pad_36</title>
<polygon fill="#d8bfd8" stroke="transparent" points="1806,-81.5 1806,-106.5 1898,-106.5 1898,-81.5 1806,-81.5"/>
<polygon fill="none" stroke="black" points="1806,-81 1806,-106 1829,-106 1829,-81 1806,-81"/>
<text text-anchor="start" x="1811" y="-89.8" font-family="Times,serif" font-size="14.00">●</text>
<polygon fill="none" stroke="black" points="1829,-81 1829,-106 1875,-106 1875,-81 1829,-81"/>
<text text-anchor="start" x="1834" y="-89.8" font-family="Times,serif" font-size="14.00"> pad </text>
<polygon fill="none" stroke="black" points="1875,-81 1875,-106 1898,-106 1898,-81 1875,-81"/>
<text text-anchor="start" x="1880" y="-89.8" font-family="Times,serif" font-size="14.00">●</text>
</g>
<!-- cluster_MyFir_result&#45;&gt;op_pad_36 -->
<g id="edge28" class="edge">
<title>cluster_MyFir_result&#45;&gt;op_pad_36:in1</title>
<path fill="none" stroke="black" d="M1762.03,-93C1772.05,-93 1783.62,-93 1794.84,-93"/>
<polygon fill="black" stroke="black" points="1795,-96.5 1805,-93 1795,-89.5 1795,-96.5"/>
</g>
<!-- op_add_28 -->
<g id="node29" class="node">
<title>op_add_28</title>
<polygon fill="#d8bfd8" stroke="transparent" points="1567,-68 1567,-118 1659,-118 1659,-68 1567,-68"/>
<polygon fill="none" stroke="black" points="1567,-93 1567,-118 1590,-118 1590,-93 1567,-93"/>
<text text-anchor="start" x="1572" y="-101.8" font-family="Times,serif" font-size="14.00">●</text>
<polygon fill="none" stroke="black" points="1590,-68 1590,-118 1636,-118 1636,-68 1590,-68"/>
<text text-anchor="start" x="1595" y="-89.3" font-family="Times,serif" font-size="14.00"> add </text>
<polygon fill="none" stroke="black" points="1636,-68 1636,-118 1659,-118 1659,-68 1636,-68"/>
<text text-anchor="start" x="1641" y="-89.3" font-family="Times,serif" font-size="14.00">●</text>
<polygon fill="none" stroke="black" points="1567,-68 1567,-93 1590,-93 1590,-68 1567,-68"/>
<text text-anchor="start" x="1572" y="-76.8" font-family="Times,serif" font-size="14.00">●</text>
</g>
<!-- op_add_28&#45;&gt;cluster_MyFir_result -->
<g id="edge40" class="edge">
<title>op_add_28:out&#45;&gt;cluster_MyFir_result</title>
<path fill="none" stroke="black" d="M1660,-93C1670.61,-93 1682.11,-93 1692.72,-93"/>
<polygon fill="black" stroke="black" points="1692.97,-96.5 1702.97,-93 1692.97,-89.5 1692.97,-96.5"/>
</g>
<!-- op_add_29 -->
<g id="node30" class="node">
<title>op_add_29</title>
<polygon fill="#d8bfd8" stroke="transparent" points="1423,-98 1423,-148 1515,-148 1515,-98 1423,-98"/>
<polygon fill="none" stroke="black" points="1423,-123 1423,-148 1446,-148 1446,-123 1423,-123"/>
<text text-anchor="start" x="1428" y="-131.8" font-family="Times,serif" font-size="14.00">●</text>
<polygon fill="none" stroke="black" points="1446,-98 1446,-148 1492,-148 1492,-98 1446,-98"/>
<text text-anchor="start" x="1451" y="-119.3" font-family="Times,serif" font-size="14.00"> add </text>
<polygon fill="none" stroke="black" points="1492,-98 1492,-148 1515,-148 1515,-98 1492,-98"/>
<text text-anchor="start" x="1497" y="-119.3" font-family="Times,serif" font-size="14.00">●</text>
<polygon fill="none" stroke="black" points="1423,-98 1423,-123 1446,-123 1446,-98 1423,-98"/>
<text text-anchor="start" x="1428" y="-106.8" font-family="Times,serif" font-size="14.00">●</text>
</g>
<!-- op_add_29&#45;&gt;op_add_28 -->
<g id="edge15" class="edge">
<title>op_add_29:out&#45;&gt;op_add_28:in1</title>
<path fill="none" stroke="black" d="M1516,-123C1535.62,-123 1540.98,-111.12 1555.92,-107.22"/>
<polygon fill="black" stroke="black" points="1556.49,-110.68 1566,-106 1555.65,-103.73 1556.49,-110.68"/>
</g>
<!-- op_add_30 -->
<g id="node31" class="node">
<title>op_add_30</title>
<polygon fill="#d8bfd8" stroke="transparent" points="1279,-151 1279,-201 1371,-201 1371,-151 1279,-151"/>
<polygon fill="none" stroke="black" points="1279,-176 1279,-201 1302,-201 1302,-176 1279,-176"/>
<text text-anchor="start" x="1284" y="-184.8" font-family="Times,serif" font-size="14.00">●</text>
<polygon fill="none" stroke="black" points="1302,-151 1302,-201 1348,-201 1348,-151 1302,-151"/>
<text text-anchor="start" x="1307" y="-172.3" font-family="Times,serif" font-size="14.00"> add </text>
<polygon fill="none" stroke="black" points="1348,-151 1348,-201 1371,-201 1371,-151 1348,-151"/>
<text text-anchor="start" x="1353" y="-172.3" font-family="Times,serif" font-size="14.00">●</text>
<polygon fill="none" stroke="black" points="1279,-151 1279,-176 1302,-176 1302,-151 1279,-151"/>
<text text-anchor="start" x="1284" y="-159.8" font-family="Times,serif" font-size="14.00">●</text>
</g>
<!-- op_add_30&#45;&gt;op_add_29 -->
<g id="edge24" class="edge">
<title>op_add_30:out&#45;&gt;op_add_29:in1</title>
<path fill="none" stroke="black" d="M1372,-176C1396.46,-176 1394.79,-146.46 1411.9,-138.15"/>
<polygon fill="black" stroke="black" points="1412.95,-141.51 1422,-136 1411.49,-134.66 1412.95,-141.51"/>
</g>
<!-- op_add_31&#45;&gt;op_add_30 -->
<g id="edge20" class="edge">
<title>op_add_31:out&#45;&gt;op_add_30:in1</title>
<path fill="none" stroke="black" d="M1220,-229C1247.52,-229 1247.28,-198.1 1268.08,-190.62"/>
<polygon fill="black" stroke="black" points="1268.69,-194.06 1278,-189 1267.57,-187.15 1268.69,-194.06"/>
</g>
<!-- op_add_32&#45;&gt;op_add_31 -->
<g id="edge26" class="edge">
<title>op_add_32:out&#45;&gt;op_add_31:in1</title>
<path fill="none" stroke="black" d="M1055.5,-249C1083.3,-249 1092.42,-243.54 1115.84,-242.27"/>
<polygon fill="black" stroke="black" points="1116.1,-245.76 1126,-242 1115.91,-238.76 1116.1,-245.76"/>
</g>
<!-- op_pad_33&#45;&gt;op_add_30 -->
<g id="edge7" class="edge">
<title>op_pad_33:out&#45;&gt;op_add_30:in2</title>
<path fill="none" stroke="black" d="M1220,-163C1241.95,-163 1249.88,-163 1267.67,-163"/>
<polygon fill="black" stroke="black" points="1268,-166.5 1278,-163 1268,-159.5 1268,-166.5"/>
</g>
<!-- op_pad_34&#45;&gt;op_add_29 -->
<g id="edge11" class="edge">
<title>op_pad_34:out&#45;&gt;op_add_29:in2</title>
<path fill="none" stroke="black" d="M1372,-110C1390.4,-110 1397.38,-110 1411.85,-110"/>
<polygon fill="black" stroke="black" points="1412,-113.5 1422,-110 1412,-106.5 1412,-113.5"/>
</g>
<!-- op_pad_35&#45;&gt;op_add_28 -->
<g id="edge4" class="edge">
<title>op_pad_35:out&#45;&gt;op_add_28:in2</title>
<path fill="none" stroke="black" d="M1516,-54C1537.13,-54 1540.37,-72.51 1555.91,-78.29"/>
<polygon fill="black" stroke="black" points="1555.56,-81.78 1566,-80 1556.72,-74.88 1555.56,-81.78"/>
</g>
<!-- op_pad_36&#45;&gt;cluster_MyFir_io_out -->
<g id="edge30" class="edge">
<title>op_pad_36:out&#45;&gt;cluster_MyFir_io_out</title>
<path fill="none" stroke="black" d="M1899,-93C1909.61,-93 1921.11,-93 1931.72,-93"/>
<polygon fill="black" stroke="black" points="1931.97,-96.5 1941.97,-93 1931.97,-89.5 1931.97,-96.5"/>
</g>
</g>
</svg>
